<svg xmlns="http://www.w3.org/2000/svg" xmlns:xlink="http://www.w3.org/1999/xlink" width="150" zoomAndPan="magnify" viewBox="0 0 112.5 30.000001" height="40" preserveAspectRatio="xMidYMid meet" version="1.0"><defs><g/><clipPath id="id1"><path d="M 2.558594 10 L 14 10 L 14 24.058594 L 2.558594 24.058594 Z M 2.558594 10 " clip-rule="nonzero"/></clipPath><clipPath id="id2"><path d="M 14 5 L 23.703125 5 L 23.703125 19 L 14 19 Z M 14 5 " clip-rule="nonzero"/></clipPath><clipPath id="id3"><path d="M 6 2.917969 L 22 2.917969 L 22 24.058594 L 6 24.058594 Z M 6 2.917969 " clip-rule="nonzero"/></clipPath></defs><g clip-path="url(#id1)"><path fill="#ff7e1f" d="M 13.023438 22.074219 L 10.667969 22.074219 C 10.488281 22.074219 10.339844 21.925781 10.339844 21.746094 C 10.339844 21.5625 10.488281 21.414062 10.667969 21.414062 L 12.957031 21.414062 L 12.238281 14.710938 C 12.1875 14.214844 11.765625 13.816406 11.257812 13.816406 L 10.011719 13.816406 L 10.011719 12.59375 C 10.011719 11.539062 9.195312 10.679688 8.195312 10.679688 L 7.558594 10.679688 C 6.574219 10.679688 5.757812 11.539062 5.757812 12.59375 L 5.757812 13.816406 L 4.53125 13.816406 C 4.023438 13.816406 3.597656 14.199219 3.546875 14.710938 L 2.664062 22.96875 C 2.597656 23.546875 3.058594 24.058594 3.644531 24.058594 L 12.125 24.058594 C 12.714844 24.058594 13.171875 23.546875 13.105469 22.96875 Z M 9.359375 13.816406 L 6.410156 13.816406 L 6.410156 12.59375 C 6.410156 11.902344 6.9375 11.339844 7.574219 11.339844 L 8.210938 11.339844 C 8.851562 11.339844 9.375 11.902344 9.375 12.59375 L 9.375 13.816406 Z M 9.359375 13.816406 " fill-opacity="1" fill-rule="nonzero"/></g><g clip-path="url(#id2)"><path fill="#ff7e1f" d="M 23.480469 14.777344 L 19.539062 9.851562 C 19.359375 9.621094 18.964844 9.425781 18.671875 9.390625 L 16.246094 9.191406 C 16.230469 9.191406 16.214844 9.191406 16.199219 9.191406 C 14.9375 8.054688 15.035156 6.683594 15.152344 6.46875 C 15.265625 6.351562 15.296875 6.171875 15.183594 6.019531 C 15.070312 5.871094 14.875 5.839844 14.726562 5.957031 C 14.480469 6.136719 14.429688 6.582031 14.429688 6.832031 C 14.414062 7.210938 14.480469 8.464844 15.675781 9.605469 C 15.675781 9.636719 15.660156 9.65625 15.660156 9.6875 L 15.414062 12.015625 C 15.378906 12.3125 15.511719 12.742188 15.691406 12.957031 L 19.703125 17.914062 C 19.800781 18.046875 19.964844 18.113281 20.109375 18.113281 C 20.226562 18.113281 20.355469 18.078125 20.453125 17.996094 L 23.398438 15.535156 C 23.628906 15.335938 23.660156 15.007812 23.480469 14.777344 Z M 17.214844 11.339844 C 17.035156 11.339844 16.886719 11.191406 16.886719 11.007812 C 16.886719 10.828125 17.035156 10.679688 17.214844 10.679688 C 17.394531 10.679688 17.539062 10.828125 17.539062 11.007812 C 17.539062 11.191406 17.394531 11.339844 17.214844 11.339844 Z M 17.214844 11.339844 " fill-opacity="1" fill-rule="nonzero"/></g><g clip-path="url(#id3)"><path fill="#ff7e1f" d="M 21.140625 18.277344 L 20.878906 18.492188 C 20.667969 18.671875 20.40625 18.773438 20.125 18.773438 C 20.09375 18.773438 20.042969 18.773438 20.011719 18.773438 C 19.703125 18.738281 19.40625 18.589844 19.210938 18.34375 L 15.199219 13.386719 C 14.90625 13.023438 14.726562 12.414062 14.773438 11.949219 L 14.988281 9.851562 C 14.367188 9.175781 14.054688 8.464844 13.90625 7.886719 L 10.832031 7.886719 L 10.832031 5.609375 C 10.832031 4.484375 11.78125 3.578125 12.925781 3.578125 L 13.972656 3.578125 C 15.117188 3.578125 16.066406 4.484375 16.066406 5.609375 L 16.066406 7.871094 L 15.984375 7.871094 C 16.101562 8.085938 16.246094 8.316406 16.476562 8.546875 L 18.71875 8.730469 C 19.195312 8.761719 19.75 9.058594 20.042969 9.441406 L 20.226562 9.671875 L 20.125 8.761719 C 20.078125 8.25 19.652344 7.871094 19.144531 7.871094 L 16.722656 7.871094 L 16.722656 5.609375 C 16.722656 4.121094 15.496094 2.917969 13.972656 2.917969 L 12.925781 2.917969 C 11.402344 2.917969 10.175781 4.121094 10.175781 5.609375 L 10.175781 7.871094 L 7.738281 7.871094 C 7.230469 7.871094 6.804688 8.25 6.753906 8.761719 L 6.609375 10.214844 C 6.902344 10.085938 7.230469 10.019531 7.574219 10.019531 L 8.210938 10.019531 C 9.554688 10.019531 10.667969 11.175781 10.667969 12.59375 L 10.667969 13.15625 L 11.238281 13.15625 C 12.089844 13.15625 12.792969 13.785156 12.875 14.625 L 13.761719 22.886719 C 13.808594 23.296875 13.695312 23.710938 13.433594 24.058594 L 20.632812 24.058594 C 21.222656 24.058594 21.679688 23.546875 21.617188 22.953125 Z M 21.140625 18.277344 " fill-opacity="1" fill-rule="nonzero"/></g><g fill="#ffffff" fill-opacity="1"><g transform="translate(22.429341, 21.305965)"><g><path d="M 0.15625 0 L 1.527344 0 L 2.410156 -2.660156 L 7.148438 -2.660156 L 8.03125 0 L 9.386719 0 L 5.589844 -11.101562 L 3.953125 -11.101562 Z M 2.753906 -3.828125 L 4.769531 -9.875 L 4.804688 -9.875 L 6.785156 -3.828125 Z M 2.753906 -3.828125 "/></g></g></g><g fill="#ffffff" fill-opacity="1"><g transform="translate(33.544265, 21.305965)"><g><path d="M 3.90625 0 L 5.511719 0 L 9.242188 -11.101562 L 7.875 -11.101562 L 4.738281 -1.433594 L 4.707031 -1.433594 L 1.542969 -11.101562 L 0.15625 -11.101562 Z M 3.90625 0 "/></g></g></g><g fill="#ffffff" fill-opacity="1"><g transform="translate(44.517513, 21.305965)"><g><path d="M 0.15625 0 L 1.527344 0 L 2.410156 -2.660156 L 7.148438 -2.660156 L 8.03125 0 L 9.386719 0 L 5.589844 -11.101562 L 3.953125 -11.101562 Z M 2.753906 -3.828125 L 4.769531 -9.875 L 4.804688 -9.875 L 6.785156 -3.828125 Z M 2.753906 -3.828125 "/></g></g></g><g fill="#ffffff" fill-opacity="1"><g transform="translate(55.632437, 21.305965)"><g><path d="M 0.945312 0 L 2.25 0 L 2.25 -11.101562 L 0.945312 -11.101562 Z M 0.945312 0 "/></g></g></g><g fill="#ffffff" fill-opacity="1"><g transform="translate(60.403103, 21.305965)"><g><path d="M 0.945312 0 L 6.992188 0 L 6.992188 -1.164062 L 2.25 -1.164062 L 2.25 -11.101562 L 0.945312 -11.101562 Z M 0.945312 0 "/></g></g></g><g fill="#ffffff" fill-opacity="1"><g transform="translate(69.125159, 21.305965)"><g><path d="M 0.945312 0 L 2.25 0 L 2.25 -4.125 L 3.542969 -5.621094 L 6.820312 0 L 8.332031 0 L 4.378906 -6.613281 L 8.109375 -11.101562 L 6.503906 -11.101562 L 2.269531 -5.984375 L 2.25 -5.984375 L 2.25 -11.101562 L 0.945312 -11.101562 Z M 0.945312 0 "/></g></g></g><g fill="#ffffff" fill-opacity="1"><g transform="translate(79.185339, 21.305965)"><g><path d="M 0.15625 0 L 1.527344 0 L 2.410156 -2.660156 L 7.148438 -2.660156 L 8.03125 0 L 9.386719 0 L 5.589844 -11.101562 L 3.953125 -11.101562 Z M 2.753906 -3.828125 L 4.769531 -9.875 L 4.804688 -9.875 L 6.785156 -3.828125 Z M 2.753906 -3.828125 "/></g></g></g><g fill="#ffffff" fill-opacity="1"><g transform="translate(90.300266, 21.305965)"><g><path d="M 8.09375 0.300781 C 8.769531 0.300781 9.386719 -0.0625 9.792969 -0.675781 L 9.132812 -1.449219 C 8.898438 -1.023438 8.613281 -0.804688 8.347656 -0.804688 C 8.03125 -0.804688 7.875 -1.070312 7.777344 -1.449219 L 7.257812 -3.464844 C 7.085938 -4.109375 6.753906 -4.628906 6.1875 -4.929688 L 6.1875 -4.945312 C 7.890625 -5.242188 8.914062 -6.457031 8.914062 -7.890625 C 8.914062 -9.792969 7.402344 -11.101562 5.242188 -11.101562 L 0.945312 -11.101562 L 0.945312 0 L 2.25 0 L 2.25 -4.738281 L 4.378906 -4.738281 C 5.117188 -4.738281 5.714844 -4.171875 5.9375 -3.339844 L 6.582031 -0.976562 C 6.785156 -0.234375 7.242188 0.300781 8.09375 0.300781 Z M 2.25 -5.90625 L 2.25 -9.9375 L 5.179688 -9.9375 C 6.613281 -9.9375 7.605469 -9.148438 7.605469 -7.90625 C 7.605469 -6.722656 6.613281 -5.90625 5.179688 -5.90625 Z M 2.25 -5.90625 "/></g></g></g><g fill="#ffffff" fill-opacity="1"><g transform="translate(101.667077, 21.305965)"><g><path d="M 3.402344 0 L 4.707031 0 L 4.707031 -9.9375 L 7.953125 -9.9375 L 7.953125 -11.101562 L 0.15625 -11.101562 L 0.15625 -9.9375 L 3.402344 -9.9375 Z M 3.402344 0 "/></g></g></g></svg>